<mxfile host="app.diagrams.net" modified="2024-03-07T17:59:34.144Z" agent="Mozilla/5.0 (Windows NT 10.0; Win64; x64) AppleWebKit/537.36 (KHTML, like Gecko) Chrome/122.0.0.0 Safari/537.36" etag="xngyL8ELUGBONSODwhv9" version="24.0.2" type="device">
  <diagram name="Página-1" id="7SnVxBqfXoodJW_rokYx">
    <mxGraphModel dx="401" dy="1973" grid="1" gridSize="10" guides="1" tooltips="1" connect="1" arrows="1" fold="1" page="1" pageScale="1" pageWidth="827" pageHeight="1169" math="0" shadow="0">
      <root>
        <mxCell id="0" />
        <mxCell id="1" parent="0" />
        <mxCell id="iodSAw4xDGIOmxj6YWcc-2" value="" style="rounded=0;whiteSpace=wrap;html=1;" vertex="1" parent="1">
          <mxGeometry x="300" y="-130" width="3050" height="720" as="geometry" />
        </mxCell>
        <mxCell id="iodSAw4xDGIOmxj6YWcc-3" value="EVOLUÇÃO HISTÓRICA DOS VIRUS DE COMPUTADOR&lt;div&gt;&lt;br&gt;&lt;/div&gt;&lt;div&gt;&lt;div style=&quot;font-size: medium; text-align: start;&quot; aria-description=&quot;&quot; tabindex=&quot;0&quot; class=&quot;content&quot;&gt;&lt;div class=&quot;ac-container ac-adaptiveCard&quot;&gt;&lt;div class=&quot;ac-textBlock&quot;&gt;&lt;p&gt;A história dos vírus de computador começou em 1983, quando Len Eidelman demonstrou um programa autoreplicável em um seminário de segurança computacional. No ano seguinte, o termo “vírus de computador” foi cunhado na 7ª Conferência Anual de Segurança da Informação. Em 1986, surgiu o Brain, o primeiro vírus específico para PCs, que se propagava principalmente através de disquetes infectados. No entanto, o primeiro código malicioso documentado foi o Elk Cloner, criado por Rich Skrenta para o Apple II. Desde então, os vírus de computador evoluíram constantemente, com malwares cada vez mais sofisticados desafiando a segurança dos sistemas e a privacidade dos usuários. A história dos vírus de computador destaca a importância da segurança cibernética e a necessidade de vigilância contínua contra essas ameaças.&lt;/p&gt;&lt;/div&gt;&lt;/div&gt;&lt;/div&gt;&lt;/div&gt;" style="text;html=1;align=center;verticalAlign=middle;whiteSpace=wrap;rounded=0;" vertex="1" parent="1">
          <mxGeometry x="970" y="20" width="410" height="190" as="geometry" />
        </mxCell>
        <mxCell id="iodSAw4xDGIOmxj6YWcc-4" value="UM OLHAR DETALHADO&lt;div&gt;&lt;br&gt;&lt;/div&gt;&lt;div&gt;&lt;p style=&quot;padding: 0px; margin-right: 0px; margin-bottom: 0px; margin-left: 0px; user-select: text; word-break: break-word; font-size: 14px; line-height: var(--cib-type-body1-line-height); font-variation-settings: var(--cib-type-body1-font-variation-settings); color: rgb(17, 17, 17); font-family: -apple-system, Roboto, SegoeUI, &amp;quot;Segoe UI&amp;quot;, &amp;quot;Helvetica Neue&amp;quot;, Helvetica, &amp;quot;Microsoft YaHei&amp;quot;, &amp;quot;Meiryo UI&amp;quot;, Meiryo, &amp;quot;Arial Unicode MS&amp;quot;, sans-serif; text-align: start; background-color: rgba(255, 255, 255, 0.7); margin-top: 0px !important;&quot;&gt;Os vírus de computador são softwares mal-intencionados que prejudicam o funcionamento de sistemas e dispositivos, replicando-se e disseminando-se para outros computadores. A transmissão ocorre principalmente através das ações dos usuários, seja por download e abertura de arquivos contaminados, navegação em páginas da internet de origem questionável, ou conexão de dispositivos de armazenamento externos infectados a um computador. Sistemas operacionais desatualizados também facilitam a invasão desses softwares maliciosos.&lt;/p&gt;&lt;p style=&quot;padding: 0px; margin: 12px 0px 0px; user-select: text; word-break: break-word; font-size: 14px; line-height: var(--cib-type-body1-line-height); font-variation-settings: var(--cib-type-body1-font-variation-settings); color: rgb(17, 17, 17); font-family: -apple-system, Roboto, SegoeUI, &amp;quot;Segoe UI&amp;quot;, &amp;quot;Helvetica Neue&amp;quot;, Helvetica, &amp;quot;Microsoft YaHei&amp;quot;, &amp;quot;Meiryo UI&amp;quot;, Meiryo, &amp;quot;Arial Unicode MS&amp;quot;, sans-serif; text-align: start; background-color: rgba(255, 255, 255, 0.7);&quot;&gt;Existem várias categorias de vírus de computador, cada uma com suas peculiaridades. Alguns iniciam sua atividade destrutiva imediatamente após a infecção, enquanto outros buscam e extraem informações específicas do sistema infectado ou permanecem latentes, ativando-se em momentos ou datas predeterminados.&lt;/p&gt;&lt;p style=&quot;padding: 0px; margin: 12px 0px 0px; user-select: text; word-break: break-word; font-size: 14px; line-height: var(--cib-type-body1-line-height); font-variation-settings: var(--cib-type-body1-font-variation-settings); color: rgb(17, 17, 17); font-family: -apple-system, Roboto, SegoeUI, &amp;quot;Segoe UI&amp;quot;, &amp;quot;Helvetica Neue&amp;quot;, Helvetica, &amp;quot;Microsoft YaHei&amp;quot;, &amp;quot;Meiryo UI&amp;quot;, Meiryo, &amp;quot;Arial Unicode MS&amp;quot;, sans-serif; text-align: start; background-color: rgba(255, 255, 255, 0.7);&quot;&gt;A diversidade e complexidade dos vírus de computador destacam a importância de práticas de segurança digital robustas, como a instalação de softwares antivírus atualizados, realização frequente de backups de dados importantes e educação contínua dos usuários sobre os riscos e medidas preventivas contra essas ameaças virtuais. A conscientização e a adoção de comportamentos seguros na internet são fundamentais para minimizar os riscos de infecção e garantir a integridade dos sistemas e a privacidade dos dados.&lt;/p&gt;&lt;/div&gt;" style="text;html=1;align=center;verticalAlign=middle;whiteSpace=wrap;rounded=0;" vertex="1" parent="1">
          <mxGeometry x="330" y="-70" width="610" height="330" as="geometry" />
        </mxCell>
        <mxCell id="iodSAw4xDGIOmxj6YWcc-5" value="LINHA DO TEMPO DOS VIRUS DE COMPUTADOR&amp;nbsp;&lt;div&gt;&lt;br&gt;&lt;/div&gt;&lt;div&gt;&lt;span style=&quot;color: rgb(17, 17, 17); font-family: -apple-system, Roboto, SegoeUI, &amp;quot;Segoe UI&amp;quot;, &amp;quot;Helvetica Neue&amp;quot;, Helvetica, &amp;quot;Microsoft YaHei&amp;quot;, &amp;quot;Meiryo UI&amp;quot;, Meiryo, &amp;quot;Arial Unicode MS&amp;quot;, sans-serif; font-size: 14px; text-align: start; background-color: rgba(255, 255, 255, 0.7);&quot;&gt;A história dos vírus de computador começou em 1983, quando Fred Cohen, um estudante de doutorado, cunhou o termo “Vírus de Computador” e Len Eidelmen demonstrou um programa autoreplicante. Em 1984, o conceito de vírus de computador foi formalizado na 7ª Conferência Anual de Segurança da Informação. Em 1986, surgiu o Brain, o primeiro vírus específico para PCs, que danificava o setor de inicialização do disco rígido. No entanto, o primeiro código malicioso documentado foi o Elk Cloner, criado por Rich Skrenta para o Apple II. A história dos vírus de computador destaca a evolução da compreensão e da resposta à ameaça representada por esses códigos maliciosos, refletindo um desafio contínuo para a segurança digital.&lt;/span&gt;&lt;br&gt;&lt;/div&gt;" style="text;html=1;align=center;verticalAlign=middle;whiteSpace=wrap;rounded=0;" vertex="1" parent="1">
          <mxGeometry x="1420" y="100" width="250" height="30" as="geometry" />
        </mxCell>
        <mxCell id="iodSAw4xDGIOmxj6YWcc-6" value="HACKERS E CRACKERS: EVOLUÇÃO E DIFERENCIAÇÃO&lt;div&gt;&lt;br&gt;&lt;/div&gt;&lt;div&gt;&lt;div style=&quot;font-size: medium; text-align: start;&quot; aria-description=&quot;&quot; tabindex=&quot;0&quot; class=&quot;content&quot;&gt;&lt;div class=&quot;ac-container ac-adaptiveCard&quot;&gt;&lt;div class=&quot;ac-textBlock&quot;&gt;&lt;p&gt;Nos anos 90, jovens entusiastas da informática criavam vírus para testar limites de propagação. Hoje, ataques cibernéticos visam obter dados sensíveis para exploração ilegal ou ganho financeiro. A terminologia evoluiu, distinguindo “hackers” e “crackers”. Hackers são profundos conhecedores de sistemas computacionais, exploram vulnerabilidades por prazer intelectual, sem intenção de causar danos. Crackers, por outro lado, têm intenções criminosas, cometem fraudes eletrônicas e vandalismo digital. Com a disponibilidade de vírus e ferramentas de hacking no mercado negro, tornou-se mais fácil para os crackers realizar ataques, um fenômeno conhecido como “terceirização” da atividade criminosa. Essa distinção reflete as diferentes motivações e práticas entre hackers e crackers e destaca a complexidade e a evolução da segurança cibernética.&lt;/p&gt;&lt;/div&gt;&lt;/div&gt;&lt;/div&gt;&lt;/div&gt;" style="text;html=1;align=center;verticalAlign=middle;whiteSpace=wrap;rounded=0;" vertex="1" parent="1">
          <mxGeometry x="1720" y="130" width="330" height="30" as="geometry" />
        </mxCell>
        <mxCell id="iodSAw4xDGIOmxj6YWcc-7" value="ESTRATÉGIAS ATUAIAS PARA DETECÇÃO, PREVENÇÃO E COMBATE A VIRUS INFORMÁTICOS&lt;div&gt;&lt;br&gt;&lt;/div&gt;&lt;div&gt;&lt;div style=&quot;font-size: medium; text-align: start;&quot; aria-description=&quot;&quot; tabindex=&quot;0&quot; class=&quot;content&quot;&gt;&lt;div class=&quot;ac-container ac-adaptiveCard&quot;&gt;&lt;div class=&quot;ac-textBlock&quot;&gt;&lt;p&gt;A segurança total de um sistema computacional é um desafio devido à evolução constante das ameaças cibernéticas. No entanto, práticas e ferramentas podem aumentar a segurança e reduzir a probabilidade de infecção por vírus e malwares. Isso inclui atualizações periódicas do sistema operacional e softwares, uso de ferramentas de segurança, realização regular de backups, verificação regular com um antivírus confiável, evitar softwares piratas, ter cuidado com dispositivos removíveis e evitar a execução de programas de origens suspeitas ou desconhecidas.&lt;/p&gt;&lt;/div&gt;&lt;/div&gt;&lt;/div&gt;&lt;/div&gt;" style="text;html=1;align=center;verticalAlign=middle;whiteSpace=wrap;rounded=0;" vertex="1" parent="1">
          <mxGeometry x="2080" y="-25" width="270" height="280" as="geometry" />
        </mxCell>
        <mxCell id="iodSAw4xDGIOmxj6YWcc-8" value="PONTUALIDADES ATUAIS&lt;div&gt;&lt;br&gt;&lt;/div&gt;&lt;div&gt;&lt;div style=&quot;font-size: medium; text-align: start;&quot; aria-description=&quot;&quot; tabindex=&quot;0&quot; class=&quot;content&quot;&gt;&lt;div class=&quot;ac-container ac-adaptiveCard&quot;&gt;&lt;div class=&quot;ac-textBlock&quot;&gt;&lt;p&gt;A educação em cibersegurança é crucial, pois usuários informados são menos propensos a comprometer a segurança do sistema. A implementação de Autenticação Multifator (MFA) adiciona uma camada extra de segurança. Ferramentas de segurança estão incorporando Inteligência Artificial e Aprendizado de Máquina para detectar ameaças de forma mais eficaz. Portanto, uma abordagem multifacetada para a segurança cibernética, combinando tecnologia atualizada, práticas recomendadas e educação, é essencial para a segurança no panorama digital atual.&lt;/p&gt;&lt;/div&gt;&lt;/div&gt;&lt;/div&gt;&lt;/div&gt;" style="text;html=1;align=center;verticalAlign=middle;whiteSpace=wrap;rounded=0;" vertex="1" parent="1">
          <mxGeometry x="2400" y="-5" width="230" height="300" as="geometry" />
        </mxCell>
        <mxCell id="iodSAw4xDGIOmxj6YWcc-9" value="TIPOS MAIS COMUNS DE VIRUS E SUAS FUNÇÕES&lt;div&gt;&lt;br&gt;&lt;/div&gt;&lt;div&gt;&lt;div style=&quot;font-size: medium; text-align: start;&quot; aria-description=&quot;&quot; tabindex=&quot;0&quot; class=&quot;content&quot;&gt;&lt;div class=&quot;ac-container ac-adaptiveCard&quot;&gt;&lt;div class=&quot;ac-textBlock&quot;&gt;&lt;p&gt;Existem vários tipos de ameaças cibernéticas:&lt;/p&gt;&lt;ol&gt;&lt;li&gt;&lt;strong&gt;Vírus de Boot&lt;/strong&gt;: Atacam o setor de boot do disco rígido e infectam o sistema operacional antes de ser totalmente carregado.&lt;/li&gt;&lt;li&gt;&lt;strong&gt;Vírus de Macro&lt;/strong&gt;: Escritos em linguagem de macro, infectam documentos e se replicam quando o arquivo é aberto.&lt;/li&gt;&lt;li&gt;&lt;strong&gt;Vírus de Arquivo ou Programa&lt;/strong&gt;: Infectam arquivos executáveis ou programas, podendo alterar ou apagar dados.&lt;/li&gt;&lt;li&gt;&lt;strong&gt;Cavalos de Troia (Trojans)&lt;/strong&gt;: Programas maliciosos disfarçados de software legítimo que podem roubar dados ou permitir controle remoto do computador infectado.&lt;/li&gt;&lt;li&gt;&lt;strong&gt;Worms&lt;/strong&gt;: Programas auto-replicáveis que se propagam através de redes, podendo consumir largura de banda e causar danos.&lt;/li&gt;&lt;li&gt;&lt;strong&gt;Rootkits&lt;/strong&gt;: Ocultam a existência de certos processos ou programas, permitindo que malwares permaneçam indetectados.&lt;/li&gt;&lt;li&gt;&lt;strong&gt;Ransomware&lt;/strong&gt;: Bloqueiam ou restringem o acesso ao sistema infectado, exigindo um resgate para a liberação.&lt;/li&gt;&lt;li&gt;&lt;strong&gt;Adware e Spyware&lt;/strong&gt;: Softwares indesejados que podem ser instalados com programas baixados da internet. O Adware exibe anúncios, enquanto o Spyware monitora a atividade do usuário.&lt;/li&gt;&lt;li&gt;&lt;strong&gt;Backdoors&lt;/strong&gt;: Criam uma “porta dos fundos” em um sistema, permitindo que um invasor acesse o computador sem o conhecimento do usuário.&lt;/li&gt;&lt;/ol&gt;&lt;/div&gt;&lt;/div&gt;&lt;/div&gt;&lt;/div&gt;" style="text;html=1;align=center;verticalAlign=middle;whiteSpace=wrap;rounded=0;" vertex="1" parent="1">
          <mxGeometry x="2690" y="40" width="560" height="240" as="geometry" />
        </mxCell>
      </root>
    </mxGraphModel>
  </diagram>
</mxfile>
